<svg xmlns="http://www.w3.org/2000/svg" version="1.1" xmlns:xlink="http://www.w3.org/1999/xlink" xmlns:svgjs="http://svgjs.com/svgjs" width="1440" height="560" preserveAspectRatio="none" viewBox="0 0 1440 560"><g mask="url(&quot;#SvgjsMask1000&quot;)" fill="none"><rect width="1440" height="560" x="0" y="0" fill="#0e2a47"></rect><path d="M -845.5520158967961,389 C -749.55,353.8 -557.55,228.2 -365.5520158967961,213 C -173.55,197.8 -77.55,337.4 114.44798410320391,313 C 306.45,288.6 402.45,73 594.4479841032039,91 C 786.45,109 905.34,382.6 1074.447984103204,403 C 1243.56,423.4 1366.89,235 1440,193" stroke="rgba(51, 121, 194, 0.58)" stroke-width="2"></path><path d="M -148.56262131000727,361 C -52.56,319 139.44,144 331.4373786899927,151 C 523.44,158 619.44,396.4 811.4373786899928,396 C 1003.44,395.6 1099.44,146.8 1291.4373786899928,149 C 1483.44,151.2 1741.72,397.4 1771.4373786899928,407 C 1801.15,416.6 1506.29,239 1440,197" stroke="rgba(51, 121, 194, 0.58)" stroke-width="2"></path><path d="M -947.162666253297,124 C -851.16,187.6 -659.16,418.6 -467.16266625329695,442 C -275.16,465.4 -179.16,233.4 12.837333746703052,241 C 204.84,248.6 300.84,477 492.83733374670305,480 C 684.84,483 783.4,272 972.837333746703,256 C 1162.27,240 1346.57,371.2 1440,400" stroke="rgba(51, 121, 194, 0.58)" stroke-width="2"></path><path d="M -482.0934460895918,200 C -386.09,255 -194.09,480.6 -2.093446089591815,475 C 189.91,469.4 285.91,195.2 477.9065539104082,172 C 669.91,148.8 765.91,367.4 957.9065539104082,359 C 1149.91,350.6 1341.49,129.2 1437.906553910408,130 C 1534.33,130.8 1439.58,316.4 1440,363" stroke="rgba(51, 121, 194, 0.58)" stroke-width="2"></path></g><defs><mask id="SvgjsMask1000"><rect width="1440" height="560" fill="#ffffff"></rect></mask></defs></svg>