<svg xmlns="http://www.w3.org/2000/svg" version="1.1" xmlns:xlink="http://www.w3.org/1999/xlink" xmlns:svgjs="http://svgjs.com/svgjs" width="1440" height="560" preserveAspectRatio="none" viewBox="0 0 1440 560"><g mask="url(&quot;#SvgjsMask1010&quot;)" fill="none"><rect width="1440" height="560" x="0" y="0" fill="rgba(0, 0, 0, 0.97)"></rect><path d="M692.86-22.92C556.02 20.96 512.38 415.92 322.77 416.92 133.16 417.92 66.95 156.94-47.32 142.52" stroke="rgba(255, 0, 0, 0.58)" stroke-width="2"></path><path d="M833.44-84.73C668.53-36.7 625.1 420.74 377.04 428.82 128.97 436.9 38.81 306.7-79.37 305.62" stroke="rgba(255, 0, 0, 0.58)" stroke-width="2"></path><path d="M1139.76-32.92C945.77-10.9 827.28 416.78 502.2 418.03 177.11 419.28 31.37 224.23-135.37 222.03" stroke="rgba(255, 0, 0, 0.58)" stroke-width="2"></path><path d="M1173.33-91.89C997.49-83.72 858.82 217.62 540.96 217.79 223.1 217.96 72.9 40.31-91.41 38.59" stroke="rgba(255, 0, 0, 0.58)" stroke-width="2"></path><path d="M1103.31-7.02C935.3 49.91 908.88 528.25 655.08 543.05 401.28 557.85 430.97 473.05 206.85 473.05-17.26 473.05-127.96 542.84-241.38 543.05" stroke="rgba(255, 0, 0, 0.58)" stroke-width="2"></path></g><defs><mask id="SvgjsMask1010"><rect width="1440" height="560" fill="#ffffff"></rect></mask></defs></svg>