<svg xmlns="http://www.w3.org/2000/svg" version="1.1" xmlns:xlink="http://www.w3.org/1999/xlink" xmlns:svgjs="http://svgjs.com/svgjs" width="1440" height="560" preserveAspectRatio="none" viewBox="0 0 1440 560"><g mask="url(&quot;#SvgjsMask1001&quot;)" fill="none"><rect width="1440" height="560" x="0" y="0" fill="rgba(0, 0, 0, 1)"></rect><path d="M0,655.807C121.343,659.256,190.66,516.17,276.67,430.506C345.224,362.228,413.905,295.344,451.454,206.172C488.238,118.816,480.471,24.441,487.462,-70.086C496.55,-192.971,554.897,-322.451,498.657,-432.089C440.151,-546.144,310.838,-604.653,190.54,-648.921C64.309,-695.372,-83.116,-751.834,-202.649,-690.16C-322.576,-628.283,-332.661,-463.034,-398.283,-345.114C-448.548,-254.79,-513.004,-176.951,-543.252,-78.108C-577.92,35.178,-643.694,164.168,-585.755,267.506C-527.273,371.813,-366.416,348.988,-266.744,415.061C-164.85,482.607,-122.2,652.334,0,655.807" fill="#000000"></path><path d="M1440 928.216C1508.455 917.957 1534.058 832.3820000000001 1584.777 785.277 1624.536 748.351 1680.21 729.238 1705.778 681.377 1732.08 632.142 1728.149 574.521 1727.182 518.7090000000001 1726.087 455.491 1737.097 385.94 1699.777 334.902 1661.853 283.037 1594.233 261.317 1530.931 250.317 1471.83 240.04700000000003 1411.606 251.8 1356.383 275.228 1305.354 296.877 1266.427 336.253 1229.964 378.003 1193.37 419.902 1163.662 465.234 1144.745 517.549 1122.009 580.424 1085.904 648.37 1109.591 710.893 1133.375 773.674 1208.275 796.402 1264.365 833.294 1321.114 870.62 1372.826 938.283 1440 928.216" fill="#000000"></path></g><defs><mask id="SvgjsMask1001"><rect width="1440" height="560" fill="#ffffff"></rect></mask></defs></svg>