<svg xmlns="http://www.w3.org/2000/svg" version="1.1" xmlns:xlink="http://www.w3.org/1999/xlink" xmlns:svgjs="http://svgjs.com/svgjs" width="1440" height="560" preserveAspectRatio="none" viewBox="0 0 1440 560"><g mask="url(&quot;#SvgjsMask1006&quot;)" fill="none"><rect width="1440" height="560" x="0" y="0" fill="rgba(0, 0, 0, 1)"></rect><path d="M-73.12 385.16L-73.12 385.16" stroke="rgba(101, 19, 19, 1)" stroke-width="1.5"></path><path d="M-73.12 385.16L38.44 367.02" stroke="rgba(101, 19, 19, 1)" stroke-width="1.5"></path><path d="M-73.12 385.16L-72.25 523.68" stroke="rgba(101, 19, 19, 1)" stroke-width="1.5"></path><path d="M-73.12 385.16L43.57 540.72" stroke="rgba(101, 19, 19, 1)" stroke-width="1.5"></path><path d="M-72.25 523.68L-72.25 523.68" stroke="rgba(101, 19, 19, 1)" stroke-width="1.5"></path><path d="M-72.25 523.68L43.57 540.72" stroke="rgba(101, 19, 19, 1)" stroke-width="1.5"></path><path d="M-72.25 523.68L-94 673.96" stroke="rgba(101, 19, 19, 1)" stroke-width="1.5"></path><path d="M-72.25 523.68L38.44 367.02" stroke="rgba(101, 19, 19, 1)" stroke-width="1.5"></path><path d="M-94 673.96L-94 673.96" stroke="rgba(101, 19, 19, 1)" stroke-width="1.5"></path><path d="M-94 673.96L43.57 540.72" stroke="rgba(101, 19, 19, 1)" stroke-width="1.5"></path><path d="M38.44 367.02L38.44 367.02" stroke="rgba(101, 19, 19, 1)" stroke-width="1.5"></path><path d="M38.44 367.02L187.57 355.6" stroke="rgba(101, 19, 19, 1)" stroke-width="1.5"></path><path d="M43.57 540.72L43.57 540.72" stroke="rgba(101, 19, 19, 1)" stroke-width="1.5"></path><path d="M43.57 540.72L109.82 648.54" stroke="rgba(101, 19, 19, 1)" stroke-width="1.5"></path><path d="M43.57 540.72L38.44 367.02" stroke="rgba(101, 19, 19, 1)" stroke-width="1.5"></path><path d="M43.57 540.72L226.88 521.11" stroke="rgba(101, 19, 19, 1)" stroke-width="1.5"></path><path d="M109.82 648.54L109.82 648.54" stroke="rgba(101, 19, 19, 1)" stroke-width="1.5"></path><path d="M109.82 648.54L224.56 663.78" stroke="rgba(101, 19, 19, 1)" stroke-width="1.5"></path><path d="M109.82 648.54L226.88 521.11" stroke="rgba(101, 19, 19, 1)" stroke-width="1.5"></path><path d="M109.82 648.54L-94 673.96" stroke="rgba(101, 19, 19, 1)" stroke-width="1.5"></path><path d="M109.82 648.54L-72.25 523.68" stroke="rgba(101, 19, 19, 1)" stroke-width="1.5"></path><path d="M187.57 355.6L187.57 355.6" stroke="rgba(101, 19, 19, 1)" stroke-width="1.5"></path><path d="M187.57 355.6L226.88 521.11" stroke="rgba(101, 19, 19, 1)" stroke-width="1.5"></path><path d="M187.57 355.6L359.07 366.76" stroke="rgba(101, 19, 19, 1)" stroke-width="1.5"></path><path d="M187.57 355.6L43.57 540.72" stroke="rgba(101, 19, 19, 1)" stroke-width="1.5"></path><path d="M226.88 521.11L226.88 521.11" stroke="rgba(101, 19, 19, 1)" stroke-width="1.5"></path><path d="M226.88 521.11L224.56 663.78" stroke="rgba(101, 19, 19, 1)" stroke-width="1.5"></path><path d="M224.56 663.78L224.56 663.78" stroke="rgba(101, 19, 19, 1)" stroke-width="1.5"></path><path d="M224.56 663.78L356.84 662.76" stroke="rgba(101, 19, 19, 1)" stroke-width="1.5"></path><path d="M359.07 366.76L359.07 366.76" stroke="rgba(101, 19, 19, 1)" stroke-width="1.5"></path><path d="M359.07 366.76L552.6 379.02" stroke="rgba(101, 19, 19, 1)" stroke-width="1.5"></path><path d="M359.07 366.76L226.88 521.11" stroke="rgba(101, 19, 19, 1)" stroke-width="1.5"></path><path d="M359.07 366.76L510.01 532.87" stroke="rgba(101, 19, 19, 1)" stroke-width="1.5"></path><path d="M359.07 366.76L356.84 662.76" stroke="rgba(101, 19, 19, 1)" stroke-width="1.5"></path><path d="M356.84 662.76L356.84 662.76" stroke="rgba(101, 19, 19, 1)" stroke-width="1.5"></path><path d="M356.84 662.76L509.65 709.14" stroke="rgba(101, 19, 19, 1)" stroke-width="1.5"></path><path d="M356.84 662.76L226.88 521.11" stroke="rgba(101, 19, 19, 1)" stroke-width="1.5"></path><path d="M356.84 662.76L510.01 532.87" stroke="rgba(101, 19, 19, 1)" stroke-width="1.5"></path><path d="M356.84 662.76L109.82 648.54" stroke="rgba(101, 19, 19, 1)" stroke-width="1.5"></path><path d="M552.6 379.02L552.6 379.02" stroke="rgba(101, 19, 19, 1)" stroke-width="1.5"></path><path d="M552.6 379.02L679.44 362.57" stroke="rgba(101, 19, 19, 1)" stroke-width="1.5"></path><path d="M552.6 379.02L510.01 532.87" stroke="rgba(101, 19, 19, 1)" stroke-width="1.5"></path><path d="M552.6 379.02L655.25 240.72" stroke="rgba(101, 19, 19, 1)" stroke-width="1.5"></path><path d="M552.6 379.02L703.12 561.59" stroke="rgba(101, 19, 19, 1)" stroke-width="1.5"></path><path d="M510.01 532.87L510.01 532.87" stroke="rgba(101, 19, 19, 1)" stroke-width="1.5"></path><path d="M510.01 532.87L509.65 709.14" stroke="rgba(101, 19, 19, 1)" stroke-width="1.5"></path><path d="M509.65 709.14L509.65 709.14" stroke="rgba(101, 19, 19, 1)" stroke-width="1.5"></path><path d="M655.25 240.72L655.25 240.72" stroke="rgba(101, 19, 19, 1)" stroke-width="1.5"></path><path d="M655.25 240.72L679.44 362.57" stroke="rgba(101, 19, 19, 1)" stroke-width="1.5"></path><path d="M655.25 240.72L842.57 216.54" stroke="rgba(101, 19, 19, 1)" stroke-width="1.5"></path><path d="M655.25 240.72L789.52 403.47" stroke="rgba(101, 19, 19, 1)" stroke-width="1.5"></path><path d="M655.25 240.72L949.65 254.42" stroke="rgba(101, 19, 19, 1)" stroke-width="1.5"></path><path d="M655.25 240.72L359.07 366.76" stroke="rgba(101, 19, 19, 1)" stroke-width="1.5"></path><path d="M679.44 362.57L679.44 362.57" stroke="rgba(101, 19, 19, 1)" stroke-width="1.5"></path><path d="M679.44 362.57L789.52 403.47" stroke="rgba(101, 19, 19, 1)" stroke-width="1.5"></path><path d="M679.44 362.57L703.12 561.59" stroke="rgba(101, 19, 19, 1)" stroke-width="1.5"></path><path d="M679.44 362.57L842.57 216.54" stroke="rgba(101, 19, 19, 1)" stroke-width="1.5"></path><path d="M679.44 362.57L805.56 556" stroke="rgba(101, 19, 19, 1)" stroke-width="1.5"></path><path d="M703.12 561.59L703.12 561.59" stroke="rgba(101, 19, 19, 1)" stroke-width="1.5"></path><path d="M703.12 561.59L702.35 663.12" stroke="rgba(101, 19, 19, 1)" stroke-width="1.5"></path><path d="M703.12 561.59L805.56 556" stroke="rgba(101, 19, 19, 1)" stroke-width="1.5"></path><path d="M703.12 561.59L812.45 649.08" stroke="rgba(101, 19, 19, 1)" stroke-width="1.5"></path><path d="M703.12 561.59L789.52 403.47" stroke="rgba(101, 19, 19, 1)" stroke-width="1.5"></path><path d="M702.35 663.12L702.35 663.12" stroke="rgba(101, 19, 19, 1)" stroke-width="1.5"></path><path d="M702.35 663.12L812.45 649.08" stroke="rgba(101, 19, 19, 1)" stroke-width="1.5"></path><path d="M702.35 663.12L805.56 556" stroke="rgba(101, 19, 19, 1)" stroke-width="1.5"></path><path d="M842.57 216.54L842.57 216.54" stroke="rgba(101, 19, 19, 1)" stroke-width="1.5"></path><path d="M842.57 216.54L949.65 254.42" stroke="rgba(101, 19, 19, 1)" stroke-width="1.5"></path><path d="M842.57 216.54L990.11 101.26" stroke="rgba(101, 19, 19, 1)" stroke-width="1.5"></path><path d="M842.57 216.54L789.52 403.47" stroke="rgba(101, 19, 19, 1)" stroke-width="1.5"></path><path d="M789.52 403.47L789.52 403.47" stroke="rgba(101, 19, 19, 1)" stroke-width="1.5"></path><path d="M789.52 403.47L805.56 556" stroke="rgba(101, 19, 19, 1)" stroke-width="1.5"></path><path d="M805.56 556L805.56 556" stroke="rgba(101, 19, 19, 1)" stroke-width="1.5"></path><path d="M805.56 556L812.45 649.08" stroke="rgba(101, 19, 19, 1)" stroke-width="1.5"></path><path d="M812.45 649.08L812.45 649.08" stroke="rgba(101, 19, 19, 1)" stroke-width="1.5"></path><path d="M960.68 -45.19L960.68 -45.19" stroke="rgba(101, 19, 19, 1)" stroke-width="1.5"></path><path d="M960.68 -45.19L990.11 101.26" stroke="rgba(101, 19, 19, 1)" stroke-width="1.5"></path><path d="M960.68 -45.19L1129.14 -110.34" stroke="rgba(101, 19, 19, 1)" stroke-width="1.5"></path><path d="M960.68 -45.19L1107.72 91.43" stroke="rgba(101, 19, 19, 1)" stroke-width="1.5"></path><path d="M960.68 -45.19L842.57 216.54" stroke="rgba(101, 19, 19, 1)" stroke-width="1.5"></path><path d="M960.68 -45.19L949.65 254.42" stroke="rgba(101, 19, 19, 1)" stroke-width="1.5"></path><path d="M990.11 101.26L990.11 101.26" stroke="rgba(101, 19, 19, 1)" stroke-width="1.5"></path><path d="M990.11 101.26L1107.72 91.43" stroke="rgba(101, 19, 19, 1)" stroke-width="1.5"></path><path d="M990.11 101.26L949.65 254.42" stroke="rgba(101, 19, 19, 1)" stroke-width="1.5"></path><path d="M949.65 254.42L949.65 254.42" stroke="rgba(101, 19, 19, 1)" stroke-width="1.5"></path><path d="M949.65 254.42L965.84 406.72" stroke="rgba(101, 19, 19, 1)" stroke-width="1.5"></path><path d="M965.84 406.72L965.84 406.72" stroke="rgba(101, 19, 19, 1)" stroke-width="1.5"></path><path d="M965.84 406.72L961.81 553.66" stroke="rgba(101, 19, 19, 1)" stroke-width="1.5"></path><path d="M965.84 406.72L789.52 403.47" stroke="rgba(101, 19, 19, 1)" stroke-width="1.5"></path><path d="M965.84 406.72L1149.37 406.89" stroke="rgba(101, 19, 19, 1)" stroke-width="1.5"></path><path d="M965.84 406.72L1144.68 496.04" stroke="rgba(101, 19, 19, 1)" stroke-width="1.5"></path><path d="M961.81 553.66L961.81 553.66" stroke="rgba(101, 19, 19, 1)" stroke-width="1.5"></path><path d="M961.81 553.66L945.52 644.74" stroke="rgba(101, 19, 19, 1)" stroke-width="1.5"></path><path d="M961.81 553.66L805.56 556" stroke="rgba(101, 19, 19, 1)" stroke-width="1.5"></path><path d="M945.52 644.74L945.52 644.74" stroke="rgba(101, 19, 19, 1)" stroke-width="1.5"></path><path d="M945.52 644.74L812.45 649.08" stroke="rgba(101, 19, 19, 1)" stroke-width="1.5"></path><path d="M945.52 644.74L805.56 556" stroke="rgba(101, 19, 19, 1)" stroke-width="1.5"></path><path d="M945.52 644.74L1140.03 708.06" stroke="rgba(101, 19, 19, 1)" stroke-width="1.5"></path><path d="M1129.14 -110.34L1129.14 -110.34" stroke="rgba(101, 19, 19, 1)" stroke-width="1.5"></path><path d="M1129.14 -110.34L1289.71 -107.01" stroke="rgba(101, 19, 19, 1)" stroke-width="1.5"></path><path d="M1129.14 -110.34L1107.72 91.43" stroke="rgba(101, 19, 19, 1)" stroke-width="1.5"></path><path d="M1129.14 -110.34L990.11 101.26" stroke="rgba(101, 19, 19, 1)" stroke-width="1.5"></path><path d="M1107.72 91.43L1107.72 91.43" stroke="rgba(101, 19, 19, 1)" stroke-width="1.5"></path><path d="M1107.72 91.43L1151.7 251.1" stroke="rgba(101, 19, 19, 1)" stroke-width="1.5"></path><path d="M1107.72 91.43L1283.44 188.54" stroke="rgba(101, 19, 19, 1)" stroke-width="1.5"></path><path d="M1151.7 251.1L1151.7 251.1" stroke="rgba(101, 19, 19, 1)" stroke-width="1.5"></path><path d="M1151.7 251.1L1283.44 188.54" stroke="rgba(101, 19, 19, 1)" stroke-width="1.5"></path><path d="M1151.7 251.1L1149.37 406.89" stroke="rgba(101, 19, 19, 1)" stroke-width="1.5"></path><path d="M1149.37 406.89L1149.37 406.89" stroke="rgba(101, 19, 19, 1)" stroke-width="1.5"></path><path d="M1149.37 406.89L1144.68 496.04" stroke="rgba(101, 19, 19, 1)" stroke-width="1.5"></path><path d="M1149.37 406.89L1240.37 387.38" stroke="rgba(101, 19, 19, 1)" stroke-width="1.5"></path><path d="M1149.37 406.89L1298.3 535.25" stroke="rgba(101, 19, 19, 1)" stroke-width="1.5"></path><path d="M1144.68 496.04L1144.68 496.04" stroke="rgba(101, 19, 19, 1)" stroke-width="1.5"></path><path d="M1144.68 496.04L1240.37 387.38" stroke="rgba(101, 19, 19, 1)" stroke-width="1.5"></path><path d="M1144.68 496.04L1298.3 535.25" stroke="rgba(101, 19, 19, 1)" stroke-width="1.5"></path><path d="M1144.68 496.04L961.81 553.66" stroke="rgba(101, 19, 19, 1)" stroke-width="1.5"></path><path d="M1140.03 708.06L1140.03 708.06" stroke="rgba(101, 19, 19, 1)" stroke-width="1.5"></path><path d="M1140.03 708.06L1278.98 695.54" stroke="rgba(101, 19, 19, 1)" stroke-width="1.5"></path><path d="M1140.03 708.06L1144.68 496.04" stroke="rgba(101, 19, 19, 1)" stroke-width="1.5"></path><path d="M1289.71 -107.01L1289.71 -107.01" stroke="rgba(101, 19, 19, 1)" stroke-width="1.5"></path><path d="M1289.71 -107.01L1420.8 -71.98" stroke="rgba(101, 19, 19, 1)" stroke-width="1.5"></path><path d="M1289.71 -107.01L1310.99 80.34" stroke="rgba(101, 19, 19, 1)" stroke-width="1.5"></path><path d="M1289.71 -107.01L1426.87 104.87" stroke="rgba(101, 19, 19, 1)" stroke-width="1.5"></path><path d="M1289.71 -107.01L1107.72 91.43" stroke="rgba(101, 19, 19, 1)" stroke-width="1.5"></path><path d="M1310.99 80.34L1310.99 80.34" stroke="rgba(101, 19, 19, 1)" stroke-width="1.5"></path><path d="M1310.99 80.34L1283.44 188.54" stroke="rgba(101, 19, 19, 1)" stroke-width="1.5"></path><path d="M1310.99 80.34L1426.87 104.87" stroke="rgba(101, 19, 19, 1)" stroke-width="1.5"></path><path d="M1310.99 80.34L1420.8 -71.98" stroke="rgba(101, 19, 19, 1)" stroke-width="1.5"></path><path d="M1310.99 80.34L1107.72 91.43" stroke="rgba(101, 19, 19, 1)" stroke-width="1.5"></path><path d="M1310.99 80.34L1151.7 251.1" stroke="rgba(101, 19, 19, 1)" stroke-width="1.5"></path><path d="M1283.44 188.54L1283.44 188.54" stroke="rgba(101, 19, 19, 1)" stroke-width="1.5"></path><path d="M1283.44 188.54L1426.87 104.87" stroke="rgba(101, 19, 19, 1)" stroke-width="1.5"></path><path d="M1240.37 387.38L1240.37 387.38" stroke="rgba(101, 19, 19, 1)" stroke-width="1.5"></path><path d="M1240.37 387.38L1298.3 535.25" stroke="rgba(101, 19, 19, 1)" stroke-width="1.5"></path><path d="M1240.37 387.38L1151.7 251.1" stroke="rgba(101, 19, 19, 1)" stroke-width="1.5"></path><path d="M1298.3 535.25L1298.3 535.25" stroke="rgba(101, 19, 19, 1)" stroke-width="1.5"></path><path d="M1298.3 535.25L1440.12 527.1" stroke="rgba(101, 19, 19, 1)" stroke-width="1.5"></path><path d="M1278.98 695.54L1278.98 695.54" stroke="rgba(101, 19, 19, 1)" stroke-width="1.5"></path><path d="M1278.98 695.54L1400.86 686.92" stroke="rgba(101, 19, 19, 1)" stroke-width="1.5"></path><path d="M1420.8 -71.98L1420.8 -71.98" stroke="rgba(101, 19, 19, 1)" stroke-width="1.5"></path><path d="M1420.8 -71.98L1426.87 104.87" stroke="rgba(101, 19, 19, 1)" stroke-width="1.5"></path><path d="M1426.87 104.87L1426.87 104.87" stroke="rgba(101, 19, 19, 1)" stroke-width="1.5"></path><path d="M1426.87 104.87L1599.15 88.59" stroke="rgba(101, 19, 19, 1)" stroke-width="1.5"></path><path d="M1418.31 381.91L1418.31 381.91" stroke="rgba(101, 19, 19, 1)" stroke-width="1.5"></path><path d="M1418.31 381.91L1440.12 527.1" stroke="rgba(101, 19, 19, 1)" stroke-width="1.5"></path><path d="M1418.31 381.91L1592.44 397.35" stroke="rgba(101, 19, 19, 1)" stroke-width="1.5"></path><path d="M1440.12 527.1L1440.12 527.1" stroke="rgba(101, 19, 19, 1)" stroke-width="1.5"></path><path d="M1440.12 527.1L1571.73 532.37" stroke="rgba(101, 19, 19, 1)" stroke-width="1.5"></path><path d="M1400.86 686.92L1400.86 686.92" stroke="rgba(101, 19, 19, 1)" stroke-width="1.5"></path><path d="M1400.86 686.92L1440.12 527.1" stroke="rgba(101, 19, 19, 1)" stroke-width="1.5"></path><path d="M1400.86 686.92L1298.3 535.25" stroke="rgba(101, 19, 19, 1)" stroke-width="1.5"></path><path d="M1400.86 686.92L1586.78 655.33" stroke="rgba(101, 19, 19, 1)" stroke-width="1.5"></path><path d="M1400.86 686.92L1571.73 532.37" stroke="rgba(101, 19, 19, 1)" stroke-width="1.5"></path><path d="M1400.86 686.92L1140.03 708.06" stroke="rgba(101, 19, 19, 1)" stroke-width="1.5"></path><path d="M1608.43 -83.27L1608.43 -83.27" stroke="rgba(101, 19, 19, 1)" stroke-width="1.5"></path><path d="M1608.43 -83.27L1599.15 88.59" stroke="rgba(101, 19, 19, 1)" stroke-width="1.5"></path><path d="M1608.43 -83.27L1420.8 -71.98" stroke="rgba(101, 19, 19, 1)" stroke-width="1.5"></path><path d="M1608.43 -83.27L1426.87 104.87" stroke="rgba(101, 19, 19, 1)" stroke-width="1.5"></path><path d="M1608.43 -83.27L1289.71 -107.01" stroke="rgba(101, 19, 19, 1)" stroke-width="1.5"></path><path d="M1608.43 -83.27L1310.99 80.34" stroke="rgba(101, 19, 19, 1)" stroke-width="1.5"></path><path d="M1599.15 88.59L1599.15 88.59" stroke="rgba(101, 19, 19, 1)" stroke-width="1.5"></path><path d="M1599.15 88.59L1420.8 -71.98" stroke="rgba(101, 19, 19, 1)" stroke-width="1.5"></path><path d="M1599.15 88.59L1310.99 80.34" stroke="rgba(101, 19, 19, 1)" stroke-width="1.5"></path><path d="M1599.15 88.59L1592.44 397.35" stroke="rgba(101, 19, 19, 1)" stroke-width="1.5"></path><path d="M1592.44 397.35L1592.44 397.35" stroke="rgba(101, 19, 19, 1)" stroke-width="1.5"></path><path d="M1592.44 397.35L1571.73 532.37" stroke="rgba(101, 19, 19, 1)" stroke-width="1.5"></path><path d="M1571.73 532.37L1571.73 532.37" stroke="rgba(101, 19, 19, 1)" stroke-width="1.5"></path><path d="M1571.73 532.37L1586.78 655.33" stroke="rgba(101, 19, 19, 1)" stroke-width="1.5"></path><path d="M1571.73 532.37L1418.31 381.91" stroke="rgba(101, 19, 19, 1)" stroke-width="1.5"></path><path d="M1571.73 532.37L1298.3 535.25" stroke="rgba(101, 19, 19, 1)" stroke-width="1.5"></path><path d="M1586.78 655.33L1586.78 655.33" stroke="rgba(101, 19, 19, 1)" stroke-width="1.5"></path><path d="M1586.78 655.33L1440.12 527.1" stroke="rgba(101, 19, 19, 1)" stroke-width="1.5"></path><circle r="5" cx="-73.12" cy="385.16" fill="rgba(101, 19, 19, 1)"></circle><circle r="5" cx="-72.25" cy="523.68" fill="rgba(101, 19, 19, 1)"></circle><circle r="5" cx="-94" cy="673.96" fill="rgba(101, 19, 19, 1)"></circle><circle r="5" cx="38.44" cy="367.02" fill="rgba(101, 19, 19, 1)"></circle><circle r="5" cx="43.57" cy="540.72" fill="rgba(101, 19, 19, 1)"></circle><circle r="5" cx="109.82" cy="648.54" fill="rgba(101, 19, 19, 1)"></circle><circle r="5" cx="187.57" cy="355.6" fill="rgba(101, 19, 19, 1)"></circle><circle r="5" cx="226.88" cy="521.11" fill="rgba(101, 19, 19, 1)"></circle><circle r="5" cx="224.56" cy="663.78" fill="rgba(101, 19, 19, 1)"></circle><circle r="5" cx="359.07" cy="366.76" fill="rgba(101, 19, 19, 1)"></circle><circle r="5" cx="356.84" cy="662.76" fill="rgba(101, 19, 19, 1)"></circle><circle r="5" cx="552.6" cy="379.02" fill="rgba(101, 19, 19, 1)"></circle><circle r="5" cx="510.01" cy="532.87" fill="rgba(101, 19, 19, 1)"></circle><circle r="5" cx="509.65" cy="709.14" fill="rgba(101, 19, 19, 1)"></circle><circle r="5" cx="655.25" cy="240.72" fill="rgba(101, 19, 19, 1)"></circle><circle r="5" cx="679.44" cy="362.57" fill="rgba(101, 19, 19, 1)"></circle><circle r="5" cx="703.12" cy="561.59" fill="rgba(101, 19, 19, 1)"></circle><circle r="5" cx="702.35" cy="663.12" fill="rgba(101, 19, 19, 1)"></circle><circle r="5" cx="842.57" cy="216.54" fill="rgba(101, 19, 19, 1)"></circle><circle r="5" cx="789.52" cy="403.47" fill="rgba(101, 19, 19, 1)"></circle><circle r="5" cx="805.56" cy="556" fill="rgba(101, 19, 19, 1)"></circle><circle r="5" cx="812.45" cy="649.08" fill="rgba(101, 19, 19, 1)"></circle><circle r="5" cx="960.68" cy="-45.19" fill="rgba(101, 19, 19, 1)"></circle><circle r="5" cx="990.11" cy="101.26" fill="rgba(101, 19, 19, 1)"></circle><circle r="5" cx="949.65" cy="254.42" fill="rgba(101, 19, 19, 1)"></circle><circle r="5" cx="965.84" cy="406.72" fill="rgba(101, 19, 19, 1)"></circle><circle r="5" cx="961.81" cy="553.66" fill="rgba(101, 19, 19, 1)"></circle><circle r="5" cx="945.52" cy="644.74" fill="rgba(101, 19, 19, 1)"></circle><circle r="5" cx="1129.14" cy="-110.34" fill="rgba(101, 19, 19, 1)"></circle><circle r="5" cx="1107.72" cy="91.43" fill="rgba(101, 19, 19, 1)"></circle><circle r="5" cx="1151.7" cy="251.1" fill="rgba(101, 19, 19, 1)"></circle><circle r="5" cx="1149.37" cy="406.89" fill="rgba(101, 19, 19, 1)"></circle><circle r="5" cx="1144.68" cy="496.04" fill="rgba(101, 19, 19, 1)"></circle><circle r="5" cx="1140.03" cy="708.06" fill="rgba(101, 19, 19, 1)"></circle><circle r="5" cx="1289.71" cy="-107.01" fill="rgba(101, 19, 19, 1)"></circle><circle r="5" cx="1310.99" cy="80.34" fill="rgba(101, 19, 19, 1)"></circle><circle r="5" cx="1283.44" cy="188.54" fill="rgba(101, 19, 19, 1)"></circle><circle r="5" cx="1240.37" cy="387.38" fill="rgba(101, 19, 19, 1)"></circle><circle r="5" cx="1298.3" cy="535.25" fill="rgba(101, 19, 19, 1)"></circle><circle r="5" cx="1278.98" cy="695.54" fill="rgba(101, 19, 19, 1)"></circle><circle r="5" cx="1420.8" cy="-71.98" fill="rgba(101, 19, 19, 1)"></circle><circle r="5" cx="1426.87" cy="104.87" fill="rgba(101, 19, 19, 1)"></circle><circle r="5" cx="1418.31" cy="381.91" fill="rgba(101, 19, 19, 1)"></circle><circle r="5" cx="1440.12" cy="527.1" fill="rgba(101, 19, 19, 1)"></circle><circle r="5" cx="1400.86" cy="686.92" fill="rgba(101, 19, 19, 1)"></circle><circle r="5" cx="1608.43" cy="-83.27" fill="rgba(101, 19, 19, 1)"></circle><circle r="5" cx="1599.15" cy="88.59" fill="rgba(101, 19, 19, 1)"></circle><circle r="5" cx="1592.44" cy="397.35" fill="rgba(101, 19, 19, 1)"></circle><circle r="5" cx="1571.73" cy="532.37" fill="rgba(101, 19, 19, 1)"></circle><circle r="5" cx="1586.78" cy="655.33" fill="rgba(101, 19, 19, 1)"></circle><path d="M693.03 546.27L693.03 546.27" stroke="hsl(0, 100%, 65%)" stroke-width="1.5"></path><path d="M693.03 546.27L677.58 642.94" stroke="hsl(0, 100%, 65%)" stroke-width="1.5"></path><path d="M693.03 546.27L792.91 552.46" stroke="hsl(0, 100%, 65%)" stroke-width="1.5"></path><path d="M693.03 546.27L668.69 408.87" stroke="hsl(0, 100%, 65%)" stroke-width="1.5"></path><path d="M693.03 546.27L517.09 524.1" stroke="hsl(0, 100%, 65%)" stroke-width="1.5"></path><path d="M693.03 546.27L849.18 409.14" stroke="hsl(0, 100%, 65%)" stroke-width="1.5"></path><path d="M693.03 546.27L857.16 703.53" stroke="hsl(0, 100%, 65%)" stroke-width="1.5"></path><path d="M1274.65 76.61L1274.65 76.61" stroke="hsl(0, 100%, 65%)" stroke-width="1.5"></path><path d="M1274.65 76.61L1272.02 228.17" stroke="hsl(0, 100%, 65%)" stroke-width="1.5"></path><path d="M1274.65 76.61L1434.71 87.5" stroke="hsl(0, 100%, 65%)" stroke-width="1.5"></path><path d="M1274.65 76.61L1266 -84.47" stroke="hsl(0, 100%, 65%)" stroke-width="1.5"></path><path d="M1272.02 228.17L1272.02 228.17" stroke="hsl(0, 100%, 65%)" stroke-width="1.5"></path><path d="M1272.02 228.17L1160.41 258.42" stroke="hsl(0, 100%, 65%)" stroke-width="1.5"></path><path d="M1272.02 228.17L1426.1 200.55" stroke="hsl(0, 100%, 65%)" stroke-width="1.5"></path><path d="M1407.83 -85.5L1407.83 -85.5" stroke="hsl(0, 100%, 65%)" stroke-width="1.5"></path><path d="M1407.83 -85.5L1266 -84.47" stroke="hsl(0, 100%, 65%)" stroke-width="1.5"></path><path d="M1407.83 -85.5L1434.71 87.5" stroke="hsl(0, 100%, 65%)" stroke-width="1.5"></path><path d="M1551.4 101.61L1551.4 101.61" stroke="hsl(0, 100%, 65%)" stroke-width="1.5"></path><path d="M1551.4 101.61L1434.71 87.5" stroke="hsl(0, 100%, 65%)" stroke-width="1.5"></path><path d="M1551.4 101.61L1426.1 200.55" stroke="hsl(0, 100%, 65%)" stroke-width="1.5"></path><path d="M-79.74 544.97L-79.74 544.97" stroke="hsl(0, 100%, 65%)" stroke-width="1.5"></path><path d="M-79.74 544.97L58.01 494.74" stroke="hsl(0, 100%, 65%)" stroke-width="1.5"></path><path d="M-79.74 544.97L61.45 680.28" stroke="hsl(0, 100%, 65%)" stroke-width="1.5"></path><path d="M-79.74 544.97L199.59 522.43" stroke="hsl(0, 100%, 65%)" stroke-width="1.5"></path><path d="M58.01 494.74L58.01 494.74" stroke="hsl(0, 100%, 65%)" stroke-width="1.5"></path><path d="M58.01 494.74L199.59 522.43" stroke="hsl(0, 100%, 65%)" stroke-width="1.5"></path><path d="M58.01 494.74L61.45 680.28" stroke="hsl(0, 100%, 65%)" stroke-width="1.5"></path><path d="M58.01 494.74L252.55 689.24" stroke="hsl(0, 100%, 65%)" stroke-width="1.5"></path><path d="M61.45 680.28L61.45 680.28" stroke="hsl(0, 100%, 65%)" stroke-width="1.5"></path><path d="M61.45 680.28L252.55 689.24" stroke="hsl(0, 100%, 65%)" stroke-width="1.5"></path><path d="M199.59 522.43L199.59 522.43" stroke="hsl(0, 100%, 65%)" stroke-width="1.5"></path><path d="M199.59 522.43L252.55 689.24" stroke="hsl(0, 100%, 65%)" stroke-width="1.5"></path><path d="M199.59 522.43L379.2 495.28" stroke="hsl(0, 100%, 65%)" stroke-width="1.5"></path><path d="M252.55 689.24L252.55 689.24" stroke="hsl(0, 100%, 65%)" stroke-width="1.5"></path><path d="M252.55 689.24L404.55 657.15" stroke="hsl(0, 100%, 65%)" stroke-width="1.5"></path><path d="M252.55 689.24L379.2 495.28" stroke="hsl(0, 100%, 65%)" stroke-width="1.5"></path><path d="M252.55 689.24L512.5 689.57" stroke="hsl(0, 100%, 65%)" stroke-width="1.5"></path><path d="M379.2 495.28L379.2 495.28" stroke="hsl(0, 100%, 65%)" stroke-width="1.5"></path><path d="M379.2 495.28L517.09 524.1" stroke="hsl(0, 100%, 65%)" stroke-width="1.5"></path><path d="M379.2 495.28L404.55 657.15" stroke="hsl(0, 100%, 65%)" stroke-width="1.5"></path><path d="M404.55 657.15L404.55 657.15" stroke="hsl(0, 100%, 65%)" stroke-width="1.5"></path><path d="M404.55 657.15L512.5 689.57" stroke="hsl(0, 100%, 65%)" stroke-width="1.5"></path><path d="M517.09 524.1L517.09 524.1" stroke="hsl(0, 100%, 65%)" stroke-width="1.5"></path><path d="M517.09 524.1L512.5 689.57" stroke="hsl(0, 100%, 65%)" stroke-width="1.5"></path><path d="M517.09 524.1L404.55 657.15" stroke="hsl(0, 100%, 65%)" stroke-width="1.5"></path><path d="M517.09 524.1L668.69 408.87" stroke="hsl(0, 100%, 65%)" stroke-width="1.5"></path><path d="M517.09 524.1L677.58 642.94" stroke="hsl(0, 100%, 65%)" stroke-width="1.5"></path><path d="M512.5 689.57L512.5 689.57" stroke="hsl(0, 100%, 65%)" stroke-width="1.5"></path><path d="M512.5 689.57L677.58 642.94" stroke="hsl(0, 100%, 65%)" stroke-width="1.5"></path><path d="M512.5 689.57L693.03 546.27" stroke="hsl(0, 100%, 65%)" stroke-width="1.5"></path><path d="M512.5 689.57L379.2 495.28" stroke="hsl(0, 100%, 65%)" stroke-width="1.5"></path><path d="M668.69 408.87L668.69 408.87" stroke="hsl(0, 100%, 65%)" stroke-width="1.5"></path><path d="M668.69 408.87L849.18 409.14" stroke="hsl(0, 100%, 65%)" stroke-width="1.5"></path><path d="M677.58 642.94L677.58 642.94" stroke="hsl(0, 100%, 65%)" stroke-width="1.5"></path><path d="M677.58 642.94L792.91 552.46" stroke="hsl(0, 100%, 65%)" stroke-width="1.5"></path><path d="M849.18 409.14L849.18 409.14" stroke="hsl(0, 100%, 65%)" stroke-width="1.5"></path><path d="M849.18 409.14L990.37 408.49" stroke="hsl(0, 100%, 65%)" stroke-width="1.5"></path><path d="M849.18 409.14L792.91 552.46" stroke="hsl(0, 100%, 65%)" stroke-width="1.5"></path><path d="M849.18 409.14L964.55 525.61" stroke="hsl(0, 100%, 65%)" stroke-width="1.5"></path><path d="M792.91 552.46L792.91 552.46" stroke="hsl(0, 100%, 65%)" stroke-width="1.5"></path><path d="M792.91 552.46L857.16 703.53" stroke="hsl(0, 100%, 65%)" stroke-width="1.5"></path><path d="M857.16 703.53L857.16 703.53" stroke="hsl(0, 100%, 65%)" stroke-width="1.5"></path><path d="M857.16 703.53L947.55 675.33" stroke="hsl(0, 100%, 65%)" stroke-width="1.5"></path><path d="M990.37 408.49L990.37 408.49" stroke="hsl(0, 100%, 65%)" stroke-width="1.5"></path><path d="M990.37 408.49L964.55 525.61" stroke="hsl(0, 100%, 65%)" stroke-width="1.5"></path><path d="M990.37 408.49L1127.82 381.61" stroke="hsl(0, 100%, 65%)" stroke-width="1.5"></path><path d="M964.55 525.61L964.55 525.61" stroke="hsl(0, 100%, 65%)" stroke-width="1.5"></path><path d="M964.55 525.61L947.55 675.33" stroke="hsl(0, 100%, 65%)" stroke-width="1.5"></path><path d="M964.55 525.61L1125.61 529.13" stroke="hsl(0, 100%, 65%)" stroke-width="1.5"></path><path d="M947.55 675.33L947.55 675.33" stroke="hsl(0, 100%, 65%)" stroke-width="1.5"></path><path d="M947.55 675.33L1097.15 642.69" stroke="hsl(0, 100%, 65%)" stroke-width="1.5"></path><path d="M947.55 675.33L792.91 552.46" stroke="hsl(0, 100%, 65%)" stroke-width="1.5"></path><path d="M947.55 675.33L1125.61 529.13" stroke="hsl(0, 100%, 65%)" stroke-width="1.5"></path><path d="M947.55 675.33L990.37 408.49" stroke="hsl(0, 100%, 65%)" stroke-width="1.5"></path><path d="M1160.41 258.42L1160.41 258.42" stroke="hsl(0, 100%, 65%)" stroke-width="1.5"></path><path d="M1160.41 258.42L1127.82 381.61" stroke="hsl(0, 100%, 65%)" stroke-width="1.5"></path><path d="M1160.41 258.42L1305.28 404.15" stroke="hsl(0, 100%, 65%)" stroke-width="1.5"></path><path d="M1160.41 258.42L1274.65 76.61" stroke="hsl(0, 100%, 65%)" stroke-width="1.5"></path><path d="M1160.41 258.42L990.37 408.49" stroke="hsl(0, 100%, 65%)" stroke-width="1.5"></path><path d="M1160.41 258.42L1426.1 200.55" stroke="hsl(0, 100%, 65%)" stroke-width="1.5"></path><path d="M1127.82 381.61L1127.82 381.61" stroke="hsl(0, 100%, 65%)" stroke-width="1.5"></path><path d="M1127.82 381.61L1125.61 529.13" stroke="hsl(0, 100%, 65%)" stroke-width="1.5"></path><path d="M1127.82 381.61L1305.28 404.15" stroke="hsl(0, 100%, 65%)" stroke-width="1.5"></path><path d="M1127.82 381.61L1272.02 228.17" stroke="hsl(0, 100%, 65%)" stroke-width="1.5"></path><path d="M1125.61 529.13L1125.61 529.13" stroke="hsl(0, 100%, 65%)" stroke-width="1.5"></path><path d="M1125.61 529.13L1097.15 642.69" stroke="hsl(0, 100%, 65%)" stroke-width="1.5"></path><path d="M1125.61 529.13L1266.41 552.33" stroke="hsl(0, 100%, 65%)" stroke-width="1.5"></path><path d="M1097.15 642.69L1097.15 642.69" stroke="hsl(0, 100%, 65%)" stroke-width="1.5"></path><path d="M1266 -84.47L1266 -84.47" stroke="hsl(0, 100%, 65%)" stroke-width="1.5"></path><path d="M1305.28 404.15L1305.28 404.15" stroke="hsl(0, 100%, 65%)" stroke-width="1.5"></path><path d="M1305.28 404.15L1402.24 411.26" stroke="hsl(0, 100%, 65%)" stroke-width="1.5"></path><path d="M1305.28 404.15L1266.41 552.33" stroke="hsl(0, 100%, 65%)" stroke-width="1.5"></path><path d="M1305.28 404.15L1272.02 228.17" stroke="hsl(0, 100%, 65%)" stroke-width="1.5"></path><path d="M1266.41 552.33L1266.41 552.33" stroke="hsl(0, 100%, 65%)" stroke-width="1.5"></path><path d="M1266.41 552.33L1306.84 638.35" stroke="hsl(0, 100%, 65%)" stroke-width="1.5"></path><path d="M1306.84 638.35L1306.84 638.35" stroke="hsl(0, 100%, 65%)" stroke-width="1.5"></path><path d="M1306.84 638.35L1408.77 638.56" stroke="hsl(0, 100%, 65%)" stroke-width="1.5"></path><path d="M1434.71 87.5L1434.71 87.5" stroke="hsl(0, 100%, 65%)" stroke-width="1.5"></path><path d="M1434.71 87.5L1426.1 200.55" stroke="hsl(0, 100%, 65%)" stroke-width="1.5"></path><path d="M1426.1 200.55L1426.1 200.55" stroke="hsl(0, 100%, 65%)" stroke-width="1.5"></path><path d="M1402.24 411.26L1402.24 411.26" stroke="hsl(0, 100%, 65%)" stroke-width="1.5"></path><path d="M1402.24 411.26L1564.39 345.84" stroke="hsl(0, 100%, 65%)" stroke-width="1.5"></path><path d="M1408.77 638.56L1408.77 638.56" stroke="hsl(0, 100%, 65%)" stroke-width="1.5"></path><path d="M1408.77 638.56L1544.94 664.37" stroke="hsl(0, 100%, 65%)" stroke-width="1.5"></path><path d="M1408.77 638.56L1266.41 552.33" stroke="hsl(0, 100%, 65%)" stroke-width="1.5"></path><path d="M1408.77 638.56L1600.13 541.48" stroke="hsl(0, 100%, 65%)" stroke-width="1.5"></path><path d="M1408.77 638.56L1402.24 411.26" stroke="hsl(0, 100%, 65%)" stroke-width="1.5"></path><path d="M1408.77 638.56L1305.28 404.15" stroke="hsl(0, 100%, 65%)" stroke-width="1.5"></path><path d="M1607.32 255.71L1607.32 255.71" stroke="hsl(0, 100%, 65%)" stroke-width="1.5"></path><path d="M1607.32 255.71L1564.39 345.84" stroke="hsl(0, 100%, 65%)" stroke-width="1.5"></path><path d="M1607.32 255.71L1551.4 101.61" stroke="hsl(0, 100%, 65%)" stroke-width="1.5"></path><path d="M1607.32 255.71L1426.1 200.55" stroke="hsl(0, 100%, 65%)" stroke-width="1.5"></path><path d="M1564.39 345.84L1564.39 345.84" stroke="hsl(0, 100%, 65%)" stroke-width="1.5"></path><path d="M1600.13 541.48L1600.13 541.48" stroke="hsl(0, 100%, 65%)" stroke-width="1.5"></path><path d="M1600.13 541.48L1544.94 664.37" stroke="hsl(0, 100%, 65%)" stroke-width="1.5"></path><path d="M1600.13 541.48L1564.39 345.84" stroke="hsl(0, 100%, 65%)" stroke-width="1.5"></path><path d="M1600.13 541.48L1402.24 411.26" stroke="hsl(0, 100%, 65%)" stroke-width="1.5"></path><path d="M1600.13 541.48L1607.32 255.71" stroke="hsl(0, 100%, 65%)" stroke-width="1.5"></path><path d="M1544.94 664.37L1544.94 664.37" stroke="hsl(0, 100%, 65%)" stroke-width="1.5"></path><circle r="25" cx="693.03" cy="546.27" fill="url(#SvgjsRadialGradient1007)"></circle><circle r="25" cx="1274.65" cy="76.61" fill="url(#SvgjsRadialGradient1007)"></circle><circle r="25" cx="1272.02" cy="228.17" fill="url(#SvgjsRadialGradient1007)"></circle><circle r="25" cx="1407.83" cy="-85.5" fill="url(#SvgjsRadialGradient1007)"></circle><circle r="25" cx="1551.4" cy="101.61" fill="url(#SvgjsRadialGradient1007)"></circle><circle r="5" cx="-79.74" cy="544.97" fill="#ff8080"></circle><circle r="5" cx="58.01" cy="494.74" fill="#ff8080"></circle><circle r="5" cx="61.45" cy="680.28" fill="#ff8080"></circle><circle r="5" cx="199.59" cy="522.43" fill="#ff8080"></circle><circle r="5" cx="252.55" cy="689.24" fill="#ff8080"></circle><circle r="5" cx="379.2" cy="495.28" fill="#ff8080"></circle><circle r="5" cx="404.55" cy="657.15" fill="#ff8080"></circle><circle r="5" cx="517.09" cy="524.1" fill="#ff8080"></circle><circle r="5" cx="512.5" cy="689.57" fill="#ff8080"></circle><circle r="5" cx="668.69" cy="408.87" fill="#ff8080"></circle><circle r="5" cx="677.58" cy="642.94" fill="#ff8080"></circle><circle r="5" cx="849.18" cy="409.14" fill="#ff8080"></circle><circle r="5" cx="792.91" cy="552.46" fill="#ff8080"></circle><circle r="5" cx="857.16" cy="703.53" fill="#ff8080"></circle><circle r="5" cx="990.37" cy="408.49" fill="#ff8080"></circle><circle r="5" cx="964.55" cy="525.61" fill="#ff8080"></circle><circle r="5" cx="947.55" cy="675.33" fill="#ff8080"></circle><circle r="5" cx="1160.41" cy="258.42" fill="#ff8080"></circle><circle r="5" cx="1127.82" cy="381.61" fill="#ff8080"></circle><circle r="5" cx="1125.61" cy="529.13" fill="#ff8080"></circle><circle r="5" cx="1097.15" cy="642.69" fill="#ff8080"></circle><circle r="5" cx="1266" cy="-84.47" fill="#ff8080"></circle><circle r="5" cx="1305.28" cy="404.15" fill="#ff8080"></circle><circle r="5" cx="1266.41" cy="552.33" fill="#ff8080"></circle><circle r="5" cx="1306.84" cy="638.35" fill="#ff8080"></circle><circle r="5" cx="1434.71" cy="87.5" fill="#ff8080"></circle><circle r="5" cx="1426.1" cy="200.55" fill="#ff8080"></circle><circle r="5" cx="1402.24" cy="411.26" fill="#ff8080"></circle><circle r="5" cx="1408.77" cy="638.56" fill="#ff8080"></circle><circle r="5" cx="1607.32" cy="255.71" fill="#ff8080"></circle><circle r="5" cx="1564.39" cy="345.84" fill="#ff8080"></circle><circle r="5" cx="1600.13" cy="541.48" fill="#ff8080"></circle><circle r="5" cx="1544.94" cy="664.37" fill="#ff8080"></circle></g><defs><mask id="SvgjsMask1006"><rect width="1440" height="560" fill="#ffffff"></rect></mask><radialGradient id="SvgjsRadialGradient1007"><stop stop-color="#ffffff" offset="0.1"></stop><stop stop-color="rgba(255, 0, 0, 1)" offset="0.2"></stop><stop stop-color="rgba(255, 0, 0, 0)" offset="1"></stop></radialGradient></defs></svg>